<svg fill="none" height="531" viewBox="0 0 672 531" width="672" xmlns="http://www.w3.org/2000/svg" xmlns:xlink="http://www.w3.org/1999/xlink"><linearGradient id="a" gradientUnits="userSpaceOnUse" x1="672.338" x2=".337874" y1=".114634" y2="531.115"><stop offset="0" stop-color="#3b83f6"/><stop offset="1" stop-color="#f63b83"/></linearGradient><path d="m250.327 0c3.698.00520933 7.115 2 8.933 5.224l124.516 4.64067c1.942-2.18747 4.729-3.44267 7.656-3.44787 4.213 0 8 2.58333 9.541 6.5052l162.454 74.9173v-.0052c1.245-.5156 2.583-.7812 3.932-.7864 5.49.0104 10 4.3333 10.24 9.8177l46.202 49.4586 9.25 8.755c.693-.146 1.401-.224 2.115-.224 2.719 0 5.328 1.084 7.255 3.006 1.922 1.927 3.005 4.536 3.005 7.26-.005 2.786-1.14 5.453-3.156 7.385l24.64 88.219c3.146 1.833 5.083 5.203 5.089 8.849-.006 4.937-3.521 9.172-8.375 10.078l-36.97 89.776c1.474 1.823 2.276 4.094 2.276 6.432 0 2.724-1.078 5.334-3.005 7.256-1.922 1.927-4.536 3.01-7.255 3.01-3.188-.005-6.198-1.495-8.136-4.031l-87.078 19.86h.005c-.682 5.099-5.026 8.901-10.167 8.906-3.245 0-6.297-1.542-8.229-4.151l-63.14 17.536c-1.698 3.578-5.302 5.854-9.26 5.859-5.667 0-10.266-4.593-10.266-10.26.005-.349.031-.693.068-1.042l-28.183-24.656h.005c-1.453.745-3.057 1.136-4.687 1.141-3.328-.005-6.453-1.62-8.375-4.339l-33.979 11.532v-.006c-1.25 4.422-5.281 7.469-9.875 7.469-.739 0-1.474-.083-2.192-.245l-66.511 68.834c.104.588.161 1.187.167 1.786 0 5.667-4.594 10.26-10.261 10.26-.713 0-1.422-.078-2.114-.229l-31.932 27.766c.208.823.317 1.666.323 2.52 0 5.667-4.594 10.261-10.261 10.261-5.442-.005-9.937-4.266-10.234-9.698l-29.224-6.302v-.005c-1.938 2.573-4.969 4.088-8.188 4.093-2.724 0-5.333-1.083-7.26-3.005-1.922-1.927-3.005-4.536-3.005-7.26 0-5.667 4.599-10.261 10.265-10.261 1.271 0 2.537.24 3.724.703l17.959-37.921c-1.109-1.677-1.708-3.646-1.708-5.661.005-.745.088-1.485.255-2.209l-11.568-17.354-.005-.005c-1.021.333-2.083.5-3.156.5-3.412 0-6.594-1.693-8.5-4.516l-37.006 2.76h-.005c-1.583 3.834-5.323 6.334-9.469 6.339-5.666 0-10.26-4.594-10.26-10.261 0-.302.016-.609.047-.911l-20.7708-32.948h-.0052c-2.3333-.385-4.4584-1.568-6.026-3.344h-19.536.0052c-1.6145 3.776-5.3229 6.229-9.4271 6.235-5.6666 0-10.2604-4.599-10.2604-10.266 0-2.906 1.2397-5.682 3.4063-7.625l-35.53064-53.661c-5.18227-.584-9.10418003-4.964-9.10938003-10.183.005208-4.692 3.19266003-8.786 7.74479003-9.937l10.17183-66.432h-.0052c-3.1458-1.833-5.0781-5.203-5.0833-8.849 0-5.667 4.5938-10.26 10.2604-10.26.3854.005.7708.031 1.1563.083l68.0413-119.073c-1.026-1.631-1.5677-3.516-1.5729-5.4378 0-5.6719 4.5937-10.2656 10.2608-10.2656 1.833.0052 3.625.5 5.203 1.4322l134.146-81.31732c1.026-4.70826 5.193-8.0625338 10.011-8.07293378zm9.896 12.9636c-1.099 4.0208-4.521 6.974-8.656 7.4792l-15.464 68.172 145.173-70.5573v-.0052c-.026-.1927-.052-.3907-.067-.5834zm-18.323 3.1511-125.046 75.8066 101.421.7292v.0052c1.75-3.4426 5.281-5.6093 9.141-5.6093.38.0052.76.0312 1.135.0781l15.579-68.688-.005-.0052c-.86-.651-1.61-1.4323-2.23-2.3177zm158.72 5.1197c-.578 1.1562-1.364 2.1927-2.323 3.0573l53.246 82.4893c1.005-.323 2.057-.49 3.109-.495 3.833.005 7.344 2.146 9.104 5.547l93.563-16.6038c.104-.5208.25-1.0364.437-1.5364zm-15.806 3.6563-135.614 65.9173 108.834 11.948zm6.948 3.4636-25.886 75.2597 79.438 8.719c.083-.193.177-.385.276-.578zm-152.494 69.1093 97.954 59.0934h-.006c.849-.557 1.776-.99 2.75-1.276l15.5-45.068-116.202-12.7501zm-128.136 2.1197h-.005c-.255 1.9477-1.073 3.7757-2.344 5.2757l20.694 54.194 88.161-58.64c-.005-.026-.016-.047-.021-.068l-106.484-.7657zm447.574 3.2237-94.24 16.724c-.318 1.047-.802 2.037-1.433 2.927l75.932 78.255h-.005c.302-.036.604-.057.906-.068.651.006 1.297.068 1.933.198.562-2.932 1.093-5.713 1.864-9.593 2.235-11.266 5.214-25.932 8.193-40.484 3.89-19.006 7.099-34.522 9.333-45.282-.984-.745-1.823-1.656-2.484-2.698zm-321.454 2.433 45.73 138.8.005-.006c1.01.25 1.974.646 2.864 1.183l49.651-72.97c-1.854-1.911-2.891-4.463-2.896-7.13.005-.739.089-1.479.25-2.203l-95.604-57.677zm-14.661 1.119-90.297 60.068 27.073 70.907c.078-.005.161-.005.245 0 1.271 0 2.526.234 3.708.693l59.437-131.558c-.057-.031-.109-.062-.166-.093zm348.373.547.005-.005c-.755.287-1.536.479-2.333.578-2.25 10.844-5.422 26.188-9.239 44.844-2.98 14.542-5.954 29.198-8.188 40.438-.635 3.203-1.036 5.328-1.531 7.89l75.375-37.306v.005c.197-1.12.583-2.203 1.135-3.193l-7.854-8.406-47.37-44.85zm-472.4131 1.287-65.8493 115.234 90.2024-60-20.994-54.984c-.313.037-.631.063-.943.068-.813 0-1.6252-.104-2.4116-.297zm131.6931.375-61.046 135.106 101.729 6.782h.005c.807-2.193 2.339-4.042 4.339-5.245l-45.022-136.64zm133.063 2.505-15.5 45.063c1.141.625 2.151 1.458 2.979 2.463l91.235-38.885zm85.688 14.031-95.588 40.74 53.527 29.812-.006.005c1.834-1.5 4.125-2.323 6.49-2.323.245-.011.49-.011.729 0l34.869-68.24v-.005h-.02zm7.708 1.885-35.65 69.765.005.006c1.687 1.88 2.619 4.312 2.625 6.838 0 2.281-.766 4.495-2.162 6.297l49.943 79.683h-.005c.203-.011.401-.011.604 0 1.354 0 2.693.271 3.943.797l56.145-72.662c-1.641-1.869-2.542-4.271-2.547-6.755 0-2.349.807-4.625 2.286-6.448l-75.182-77.484zm-330.986 43.803-91.7458 61.026 117.9268 7.558-26.188-68.588zm501.093.271-73.724 36.489 102.297 53.969h-.005c.979-.771 2.083-1.364 3.271-1.739l-23.574-84.407c-3.286-.031-6.359-1.635-8.265-4.312zm-277 1.588c-1.891 1.75-4.37 2.719-6.943 2.724h-.182l-52.079 76.541c.146.688.219 1.386.219 2.084-.005.828-.109 1.656-.313 2.463l34.99 53.251h.005c.849.005 1.698.115 2.526.333l76.724-100.973c-1.042-1.635-1.594-3.531-1.599-5.469.005-.396.031-.791.083-1.182l-53.432-29.76zm61.197 40.907-76.802 101.068.005.005c.067.115.14.229.208.344l127.745-17.85c.427-1.567 1.219-3.01 2.313-4.208l-49.625-79.167c-.474.073-.954.11-1.433.115-.812-.005-1.619-.104-2.411-.302zm138.867 1 37.421 81.724.005.005c1.677.427 3.219 1.271 4.48 2.453l59.702-29.495c.016-.343.047-.692.094-1.031zm-5.172 7.187-18.885 126.703 49.76-37.693v.005c-.703-1.412-1.068-2.964-1.073-4.542.005-3.557 1.854-6.859 4.885-8.724zm-8.219 2.922-54.964 71.131-.005.005c.536 1.266.812 2.63.812 4.005-.005 5.063-3.697 9.36-8.697 10.13l-35.407 101.271h-.005c.823.531 1.567 1.177 2.203 1.917l76.62-58.031 19.437-130.421zm-504.9465 14.708 22.364 56.573 95.4845-47.745v.005c-.016-.208-.027-.422-.032-.63 0-.213.011-.427.021-.641l-117.8439-7.552zm-6.2552 5.115-9.9062 64.749-.0052.005c1.6562.948 3.0103 2.339 3.9217 4.011l27.6974-13.85-21.708-54.912zm145.0667 6.974 13.64 87.156 87.276-80.323-.005.005c-.016-.036-.037-.068-.052-.104l-100.864-6.724zm-6.911 5.635c-1.214.49-2.511.74-3.823.745-1.006-.005-2.006-.156-2.969-.448l-55.907 73.891 72.76 11.609c.88-.87 1.912-1.568 3.042-2.073zm-17.194 1.281-89.5051 44.75 8.9166 22.546 26.4786 4.224 54.1149-71.526zm130.651 5.193-87.776 80.787h.005c1.188 1.713 1.828 3.755 1.828 5.843-.005.105-.01.209-.015.313l69.969 42.427c1.24-1.105 2.734-1.896 4.349-2.297l13.885-126.506c-.771-.104-1.521-.297-2.25-.573zm9.917 1.266-13.527 123.218 43.563-62.53c-1.073-1.657-1.646-3.589-1.652-5.563.006-2.739 1.105-5.364 3.053-7.286zm367.373 11.661-59.177 29.229c.015.162.026.329.031.49-.005 2.448-.886 4.813-2.485 6.672l26.714 52.724h.005c.203.021.406.042.609.073l36.088-87.64-.005.005c-.651-.443-1.245-.964-1.776-1.542zm-191.093 28.265-126.542 17.683 49.484 52.969c1.146-.432 2.354-.656 3.578-.661 2.495.005 4.901.922 6.771 2.573l66.724-72.536h.005-.02zm-413.2539 1.829-25.1199 12.562 32.1093 5.125-6.9896-17.682zm413.5869 9.224-63.557 69.098c0 .031.005.068.005.104-.005 1.115-.193 2.23-.558 3.287l26.918 23.552h.005c1.26-1.021 2.745-1.724 4.328-2.063l32.86-93.984zm118.079.119-57.303 43.402-4.912 32.942v-.005c.865.62 1.625 1.37 2.256 2.224l86.953-19.828v-.005c.297-2.526 1.521-4.849 3.427-6.526l-26.197-51.708.005.005c-.318.037-.636.063-.953.073-1.115-.005-2.219-.193-3.276-.552zm-564.3605 9.803c-.1042.098-.2084.192-.3177.291l35.3226 53.339c.7709.047 1.5261.182 2.2657.401l15.9946-21.14-10.2918-26.036zm315.2665 3.552 10.021 61.473v-.005c1.63.922 2.979 2.271 3.896 3.901l33.151-11.25c.156-.969.453-1.917.88-2.802l-47.948-51.323zm-9.255.666-45.677 65.568 49.917 1.849.005-.005c.833-3.599 3.537-6.474 7.084-7.526l-9.719-59.64h-.005c-.542-.042-1.079-.126-1.605-.246zm-254.2001 4.052 6.8959 17.438 11.0312-14.579-17.9213-2.859zm26.5361 4.235-16.3281 21.584 6.7345 17.031-.0052-.006c.7448-.172 1.5051-.26 2.2655-.26 3 0 5.8438 1.312 7.7918 3.594l68.1825-30.995-68.6399-10.953zm73.093 17.385-70.1877 31.902v-.006c-.1979 2.964-1.6719 5.698-4.0416 7.495l17.2653 27.391c1.719-1.198 3.766-1.839 5.859-1.839.537.005 1.078.047 1.61.136l49.489-65.083zm19.208 1.974c-1.203 1.151-2.661 1.995-4.26 2.453l-5.25 57.766h.005c2.771 1.911 4.427 5.062 4.432 8.432-.005 1.661-.411 3.292-1.182 4.76l10.474 15.714c1.573-.922 3.359-1.412 5.182-1.417 2.063.005 4.078.63 5.782 1.797l55.13-43.031c-.406-1.114-.614-2.292-.62-3.479 0-.24.011-.479.026-.719zm-12.182 1.5-49.901 65.626v-.006c.526.714.963 1.49 1.291 2.318l35.364-2.641v-.005c.782-4.219 4.11-7.51 8.339-8.245l5.172-56.901.005.005c-.094-.052-.182-.104-.271-.156zm339.827 6.875-62.271 47.161 49.984-13.88v-.005c.599-4.526 4.12-8.109 8.63-8.791l3.651-24.484zm-441.707 1.031-13.2864 17.558h-.0052c.2448.442.4583.901.6406 1.369h16.864c.1407-1.588.6511-3.125 1.4948-4.484l-5.7136-14.448zm203.933 36.224-.005-.005c-1.062 3.979-4.396 6.943-8.474 7.521l-3.932 60.245 63.527-65.74c-.032-.047-.058-.093-.089-.14l-51.031-1.891zm-16.218 8.011-54.194 42.297-.005-.005c.136.672.203 1.354.203 2.042 0 .244-.005.489-.026.729l43.522 17.161h.005c1.713-1.917 4.088-3.12 6.646-3.37l3.838-58.86zm-57.432 51.994-.006-.005c-.38.339-.781.646-1.208.927l7.031 18.75v-.006c3.047.224 5.839 1.792 7.615 4.276l30.959-5.63c-.032-.276-.053-.557-.063-.833l-44.333-17.479zm-8.922 2.375-16.047 33.875 19.86-7.339-.005-.005c.255-2.672 1.552-5.135 3.604-6.859l-7.375-19.667h-.041zm50.093 24.355-25.937 4.714-.005-.006c-.407 2.667-1.849 5.068-4.006 6.678l1.188 9.182h-.005c1.255.229 2.453.687 3.541 1.354l25.219-21.927zm-44.088 9.578-22.339 8.255 28.146 6.073-.005-.005c.578-.661 1.239-1.25 1.963-1.745l-1.135-8.823c-2.615-.354-4.99-1.703-6.636-3.76z" fill="url(#a)"/></svg>